<svg width="46" height="37" viewBox="0 0 46 37" fill="none" xmlns="http://www.w3.org/2000/svg">
<path d="M44.6576 4.86158C44.2894 5.01066 44.0964 5.30883 44.0964 5.70357C44.0964 6.10698 44.4298 6.53666 44.7891 6.61565C45.324 6.72957 45.9379 6.23849 45.9379 5.69489C45.9379 5.05449 45.245 4.60724 44.6576 4.86158Z" fill="#EDEDED"/>
<path d="M34.5777 2.77195C32.4814 3.99535 29.5249 4.72177 25.8865 4.89379C24.6949 4.95119 24.542 4.95119 24.4527 4.85547C24.3381 4.73437 24.3317 4.74084 25.1855 4.2183C26.8166 3.21154 27.9382 2.00091 28.2759 0.860283C28.3333 0.675486 28.3078 0.65641 28.1357 0.758263C27.9382 0.87289 27.0588 1.06416 26.1413 1.19156C24.5037 1.42728 22.1652 1.593 18.495 1.73948C16.921 1.79687 16.0482 1.86057 15.7232 1.93058C15.0732 2.07075 14.0346 2.42127 13.544 2.66976C11.7471 3.56853 10.3198 5.18691 9.69541 7.03471C9.60616 7.30228 9.55523 7.54447 9.58708 7.57002C9.79096 7.76759 11.5815 7.87591 13.047 7.78036L13.8371 7.72944L13.9135 7.18782C14.0156 6.39771 14.06 6.25106 14.2385 6.03442C14.5698 5.63928 15.0286 5.53742 15.7678 5.6839C16.4368 5.81777 17.3353 5.9324 19.4445 6.14274L21.2158 6.32123L21.5152 6.58881C21.8593 6.901 22.1206 7.34707 22.2226 7.79314C22.2607 7.97163 22.2926 8.60879 22.2926 9.20764C22.2863 10.5012 22.2352 10.7051 21.8656 10.858C21.6171 10.9601 21.1136 10.9345 21.0436 10.8197C20.9672 10.6923 19.9667 10.4374 19.3232 10.3737C18.5013 10.2972 17.2269 10.3864 16.3604 10.5775C15.3727 10.7942 15.1943 10.7942 14.8629 10.5966C14.6144 10.4564 14.315 10.1315 14.1365 9.81279C14.0983 9.74909 13.9772 9.74909 13.4866 9.83187C12.6774 9.96574 10.9377 10.023 10.1158 9.94019C9.75247 9.90187 9.44027 9.88279 9.4212 9.89557C9.3575 9.96574 9.56784 11.0871 9.73986 11.616C10.1922 12.9668 11.1097 14.0309 12.3778 14.6618C12.8111 14.8784 13.4929 15.1142 13.5375 15.0632C13.5884 15.0123 13.2316 14.1011 13.0468 13.8208C12.9448 13.6615 12.6198 13.311 12.3332 13.0434C11.6195 12.3935 11.441 12.1259 11.4347 11.7117C11.4284 11.4441 11.4603 11.3612 11.6004 11.2147C11.7406 11.0745 11.8299 11.0427 12.0911 11.0427H12.4033L12.9768 11.6543C13.5821 12.2979 13.7734 12.4316 14.3148 12.5464C14.7737 12.642 15.3407 12.5336 16.1372 12.1959C17.5964 11.5715 18.6668 11.4376 19.1766 11.8072C19.6864 12.1831 19.7691 12.2214 20.1069 12.2214C20.4255 12.2214 20.4382 12.2278 20.4382 12.3999C20.4382 12.7695 20.2917 13.3493 20.1004 13.7507C19.8582 14.2605 18.9981 15.1399 18.4182 15.4711C18.0804 15.6622 18.0167 15.7324 17.9593 15.9491C17.7364 16.7519 17.628 18.1601 17.7618 18.5679C17.9275 19.0904 18.2906 19.3199 18.9405 19.3199C19.6096 19.3136 21.6932 18.7401 23.2735 18.1155C24.892 17.4784 26.7143 16.3696 27.7019 15.4139L28.3073 14.8277L27.205 14.8532C26.3065 14.8723 26.0836 14.8595 26.0071 14.7895C25.8032 14.5856 25.886 14.4773 26.5678 14.044C29.3842 12.279 31.831 9.43706 33.6342 5.83071C34.2013 4.70286 34.9659 2.84228 34.9659 2.59379C34.9664 2.56177 34.7881 2.64455 34.5777 2.77195Z" fill="#EDEDED"/>
<path d="M9.27506 19.4857C9.03286 19.3391 8.82899 19.3265 8.54234 19.4539C7.9561 19.7087 7.9561 20.5434 8.54234 20.843C9.40876 21.2889 10.1098 19.9955 9.27506 19.4857Z" fill="#EDEDED"/>
<path d="M25.2875 27.9343C25.3003 27.928 25.4404 27.8451 25.5997 27.756C25.982 27.533 26.2624 27.2272 26.4407 26.8448C26.6446 26.3859 26.6446 25.5194 26.4344 25.0416C26.2241 24.5702 25.7654 24.175 25.2301 24.003C24.8477 23.8756 24.6183 23.8628 23.0699 23.831L21.3304 23.8054V26.9977V30.19H22.0313H22.7322V29.1705V28.1447L23.2866 28.1637L23.8345 28.1828L24.51 29.1833L25.1855 30.1837L25.9693 30.19C26.3963 30.19 26.7466 30.171 26.7466 30.1519C26.7466 30.1328 26.4153 29.6293 26.0074 29.0368C25.5997 28.4376 25.281 27.9469 25.2875 27.9343ZM25.1982 26.0928C25.1282 26.7491 24.7777 26.9339 23.5797 26.9403H22.7323V26.0101V25.0798L23.6436 25.1053C24.4146 25.1181 24.5803 25.1435 24.7714 25.2518C25.0708 25.4301 25.2301 25.7486 25.1982 26.0928Z" fill="#EDEDED"/>
<path d="M42.7658 30.1073C42.7275 30.0373 42.1414 29.1705 41.0071 27.5012L40.6247 26.9468L41.6697 25.4303C42.2431 24.602 42.721 23.8947 42.7273 23.8691C42.7401 23.8436 42.4024 23.8182 41.9819 23.8182H41.2108L41.0388 24.0667C40.9368 24.2069 40.6374 24.6657 40.3633 25.0862C40.0957 25.5132 39.8472 25.8573 39.8217 25.8508C39.7962 25.8508 39.4904 25.3984 39.1399 24.8503L38.4963 23.8499H37.069H35.6352L35.049 24.742C34.38 25.7679 34.2717 25.9145 34.227 25.8253C34.2143 25.7871 33.9148 25.3218 33.5643 24.7866L32.9272 23.818H31.7675H30.6014L29.8369 25.0924C29.4164 25.7932 29.0595 26.3667 29.0405 26.3667C29.0214 26.3604 28.6773 25.7995 28.2694 25.1051L27.5367 23.8499L26.7275 23.8308C26.2815 23.8245 25.9183 23.8308 25.9183 23.8436C25.9183 23.8627 26.4663 24.7357 27.129 25.7806L28.3396 27.6858V28.9348V30.19H29.0405H29.7413V28.9157V27.6349L30.7418 26.0737C31.5382 24.8313 31.755 24.5317 31.8187 24.5954C31.857 24.64 32.2457 25.1879 32.6725 25.8125L33.4499 26.9466L33.3352 27.1187C33.2778 27.2142 32.8064 27.9088 32.2903 28.6607C31.7806 29.4127 31.3345 30.0689 31.3091 30.1071C31.2708 30.1708 31.4365 30.1899 32.0292 30.1899H32.8003L33.5267 29.0939L34.2594 28.0043L34.973 29.0939L35.6867 30.1899H37.0184H38.3438L39.0512 29.1194C39.4398 28.5332 39.7713 28.0425 39.7839 28.0299C39.7965 28.0173 40.1279 28.495 40.5166 29.1003L41.2367 30.1899H42.0205C42.6384 30.19 42.804 30.171 42.7658 30.1073ZM38.0505 28.355C37.528 29.126 37.0819 29.7695 37.0629 29.7823C37.0438 29.7951 36.5914 29.1579 36.0561 28.3741L35.0875 26.9403L36.0561 25.5321C36.8462 24.3789 37.0373 24.143 37.101 24.2132C37.1456 24.2578 37.5917 24.895 38.0887 25.6277L38.9934 26.9531L38.0505 28.355Z" fill="#EDEDED"/>
<path d="M0.175903 27.0683V30.2543H0.87677H1.57764V29.0437V27.833H3.07508H4.57253V27.164V26.495H3.07508H1.57764V25.826V25.157H3.22803H4.87843L4.91028 26.6991C4.94213 28.3621 4.98675 28.6552 5.31802 29.216C5.91704 30.2419 7.52911 30.6498 8.93084 30.1272C9.37044 29.9615 9.88021 29.5029 10.0905 29.1014C10.3837 28.5089 10.4346 28.1711 10.4346 26.6418V25.2208H11.3586H12.2826V27.7378V30.2548H12.9834H13.6843V27.7378V25.2208H14.57H15.4556L15.4875 26.7309C15.5193 28.3558 15.5639 28.6552 15.8952 29.2159C16.4942 30.2417 18.1063 30.6496 19.508 30.1271C19.9476 29.9614 20.4574 29.5027 20.6677 29.1012C20.9864 28.4704 21.0118 28.2219 21.0118 25.9726V23.8827H20.3109H19.6101V25.9152C19.6101 27.5782 19.591 27.9925 19.5145 28.2219C19.3169 28.7698 18.8964 29.0438 18.2529 29.0438C17.6604 29.0438 17.3417 28.8591 17.0932 28.3748L16.9021 27.9989L16.8831 25.9408L16.864 23.8827H12.9453H9.03286V25.9152C9.03286 27.5782 9.01379 27.9925 8.93731 28.2219C8.73974 28.7698 8.31922 29.0438 7.67575 29.0438C7.08321 29.0438 6.76454 28.8591 6.51605 28.3748L6.32495 27.9989L6.30587 25.9408L6.28663 23.8823H3.22803H0.175903V27.0683Z" fill="#EDEDED"/>
<path d="M2.27655 32.534H5.21438V32.9669H2.77089V34.4516H4.95394V34.8779H2.77089V36.4373H5.29401V36.8636H2.27655V32.534ZM4.19916 31.3031L4.68853 31.5138L3.92213 32.1325L3.50079 32.0761L4.19916 31.3031Z" fill="#EDEDED"/>
<path d="M9.66848 32.5022C9.98201 32.5022 10.2756 32.5586 10.5493 32.6697C10.823 32.7809 11.0636 32.9384 11.2693 33.1392C11.475 33.3415 11.6375 33.5738 11.7553 33.8375C11.8731 34.1013 11.9312 34.3866 11.9312 34.6919C11.9312 34.9971 11.8731 35.2841 11.7553 35.5511C11.6375 35.8199 11.4766 36.0538 11.2693 36.2562C11.0636 36.4585 10.823 36.6161 10.5493 36.7289C10.2756 36.8417 9.98201 36.8998 9.66848 36.8998C9.35164 36.8998 9.05471 36.8434 8.781 36.7289C8.50728 36.6161 8.26675 36.4585 8.06105 36.2562C7.85536 36.0538 7.69279 35.8199 7.57501 35.5511C7.45723 35.2824 7.39917 34.9971 7.39917 34.6919C7.39917 34.3866 7.45723 34.1013 7.57501 33.8359C7.69279 33.5705 7.8537 33.3366 8.06105 33.1375C8.26675 32.9368 8.50728 32.7825 8.781 32.6697C9.05471 32.5586 9.34998 32.5022 9.66848 32.5022ZM9.66848 32.9235C9.42463 32.9235 9.19737 32.9683 8.98504 33.0595C8.7727 33.1508 8.58525 33.2769 8.42268 33.4394C8.26012 33.602 8.13238 33.7911 8.03949 34.0051C7.94659 34.2191 7.90014 34.448 7.90014 34.6919C7.90014 34.939 7.94659 35.1696 8.03949 35.3853C8.13238 35.5992 8.26177 35.79 8.426 35.9542C8.59023 36.1185 8.77934 36.2479 8.99167 36.3374C9.204 36.4287 9.42961 36.4735 9.66848 36.4735C9.91234 36.4735 10.1396 36.4287 10.3519 36.3374C10.5643 36.2462 10.7501 36.1185 10.911 35.9542C11.0719 35.79 11.1979 35.5992 11.2875 35.3853C11.3788 35.1713 11.4236 34.9407 11.4236 34.6919C11.4236 34.448 11.3788 34.2191 11.2875 34.0051C11.1963 33.7911 11.0702 33.602 10.911 33.4394C10.7501 33.2769 10.5643 33.1491 10.3519 33.0595C10.1379 32.9683 9.91068 32.9235 9.66848 32.9235Z" fill="#EDEDED"/>
<path d="M14.3248 32.534H17.4368V33.3203H15.3036V34.4151H17.2577V35.2014H15.3036V36.8652H14.3265V32.534H14.3248Z" fill="#EDEDED"/>
<path d="M18.9084 35.082C18.9084 35.3988 18.9963 35.6493 19.1738 35.8334C19.3513 36.0176 19.5835 36.1088 19.8722 36.1088C20.1525 36.1088 20.3781 36.0176 20.549 35.8334C20.7198 35.6493 20.8061 35.3988 20.8061 35.082V32.534H21.7832V35.082C21.7832 35.4569 21.7052 35.7837 21.5509 36.0623C21.3966 36.341 21.176 36.555 20.889 36.706C20.6021 36.8569 20.262 36.9316 19.8655 36.9316C19.4691 36.9316 19.1257 36.8569 18.8354 36.706C18.5451 36.555 18.3211 36.341 18.1635 36.0623C18.0076 35.7837 17.928 35.4569 17.928 35.082V32.534H18.905V35.082H18.9084Z" fill="#EDEDED"/>
<path d="M22.2361 32.534H25.854V33.3385H24.5303V36.8636H23.5532V33.3385H22.2361V32.534Z" fill="#EDEDED"/>
<path d="M27.1726 35.0822C27.1726 35.3991 27.2606 35.6495 27.4381 35.8337C27.6156 36.0178 27.8478 36.109 28.1364 36.109C28.4168 36.109 28.6424 36.0178 28.8133 35.8337C28.9841 35.6495 29.0704 35.3991 29.0704 35.0822V32.5342H30.0474V35.0822C30.0474 35.4571 29.9695 35.7839 29.8152 36.0626C29.6609 36.3413 29.4403 36.5553 29.1533 36.7062C28.8663 36.8572 28.5263 36.9318 28.1298 36.9318C27.7333 36.9318 27.39 36.8572 27.0997 36.7062C26.8094 36.5553 26.5854 36.3413 26.4278 36.0626C26.2719 35.7839 26.1923 35.4571 26.1923 35.0822V32.5342H27.1693V35.0822H27.1726Z" fill="#EDEDED"/>
<path d="M32.8061 32.5342C33.3718 32.5342 33.8097 32.6653 34.1199 32.9274C34.4318 33.1895 34.5877 33.5577 34.5877 34.0322C34.5877 34.5315 34.4318 34.9196 34.1199 35.1983C33.8081 35.477 33.3701 35.6164 32.8061 35.6164H31.9037V36.8655H30.9266V32.5359H32.8061V32.5342ZM32.8061 34.8234C33.0748 34.8234 33.2839 34.7604 33.4332 34.6343C33.5841 34.5082 33.6588 34.3175 33.6588 34.062C33.6588 33.8148 33.5841 33.6291 33.4332 33.5046C33.2822 33.3802 33.0732 33.3188 32.8061 33.3188H31.9037V34.8218H32.8061V34.8234ZM32.69 35.2498H33.6422L34.6939 36.8638H33.5874L32.69 35.2498Z" fill="#EDEDED"/>
<path d="M37.4211 32.4732C37.7512 32.4732 38.0564 32.5296 38.3401 32.6407C38.6221 32.7519 38.8692 32.9095 39.0799 33.1102C39.2906 33.3126 39.4548 33.5481 39.5709 33.8152C39.6887 34.0839 39.7468 34.3759 39.7468 34.6927C39.7468 35.0062 39.6887 35.2982 39.5709 35.5719C39.4531 35.844 39.2889 36.0828 39.0799 36.2869C38.8692 36.4909 38.6237 36.6502 38.3401 36.763C38.0581 36.8758 37.7512 36.9338 37.4211 36.9338C37.0909 36.9338 36.7857 36.8774 36.502 36.763C36.22 36.6502 35.9729 36.4909 35.7622 36.2869C35.5515 36.0828 35.3873 35.844 35.2712 35.5719C35.1534 35.2999 35.0953 35.0062 35.0953 34.6927C35.0953 34.3759 35.1534 34.0806 35.2712 33.8119C35.389 33.5415 35.5532 33.3076 35.7622 33.1069C35.9729 32.9061 36.2184 32.7519 36.502 32.6391C36.7857 32.5279 37.0909 32.4732 37.4211 32.4732ZM37.4343 33.296C37.2535 33.296 37.081 33.3308 36.9184 33.4005C36.7559 33.4701 36.6132 33.5697 36.4921 33.6974C36.371 33.8251 36.2748 33.9744 36.2051 34.142C36.1354 34.3112 36.1006 34.4953 36.1006 34.6927C36.1006 34.8901 36.1354 35.0759 36.2051 35.2468C36.2748 35.4176 36.3727 35.5686 36.4954 35.698C36.6198 35.8274 36.7608 35.9286 36.9217 36.0016C37.0826 36.0745 37.2535 36.1094 37.4343 36.1094C37.6151 36.1094 37.786 36.0729 37.9453 36.0016C38.1045 35.9302 38.2438 35.829 38.3633 35.698C38.4827 35.5686 38.5773 35.4176 38.6453 35.2468C38.7133 35.0759 38.7481 34.8918 38.7481 34.6927C38.7481 34.4953 38.7133 34.3112 38.6453 34.142C38.5773 33.9728 38.4827 33.8251 38.3633 33.6974C38.2438 33.5697 38.1045 33.4701 37.9453 33.4005C37.786 33.3308 37.6151 33.296 37.4343 33.296Z" fill="#EDEDED"/>
</svg>
