<svg width="46" height="37" viewBox="0 0 46 37" fill="none" xmlns="http://www.w3.org/2000/svg">
<path d="M54.2962 1.0559C53.8961 1.21167 53.6864 1.5232 53.6864 1.93563C53.6864 2.35713 54.0486 2.80605 54.4391 2.88859C55.0204 3.00762 55.6874 2.49452 55.6874 1.92657C55.6874 1.25747 54.9345 0.790172 54.2962 1.0559Z" fill="#5B2293"/>
<path d="M52.2473 4.92235C49.1124 6.68156 44.6908 7.72612 39.2497 7.97348C37.4678 8.05601 37.239 8.05602 37.1056 7.91838C36.9342 7.74425 36.9245 7.75355 38.2013 7.00216C40.6407 5.55447 42.318 3.81362 42.8231 2.17344C42.9089 1.90771 42.8707 1.88027 42.6134 2.02674C42.318 2.19157 41.0029 2.4666 39.6308 2.6498C37.1817 2.98876 33.6846 3.22706 28.1958 3.43769C25.842 3.52022 24.5366 3.61182 24.0507 3.71248C23.0787 3.91405 21.5255 4.41808 20.7916 4.77541C18.1045 6.0678 15.97 8.39498 15.0362 11.052C14.9027 11.4368 14.8266 11.7851 14.8742 11.8218C15.1791 12.1059 17.8569 12.2617 20.0484 12.1243L21.23 12.051L21.3444 11.2722C21.4969 10.1361 21.5634 9.92519 21.8304 9.61366C22.3258 9.04547 23.012 8.89901 24.1174 9.10963C25.1179 9.30213 26.4615 9.46696 29.6158 9.76943L32.2648 10.0261L32.7126 10.4109C33.2271 10.8598 33.6178 11.5012 33.7704 12.1426C33.8275 12.3993 33.8751 13.3155 33.8751 14.1767C33.8657 16.0368 33.7893 16.3299 33.2365 16.5499C32.8649 16.6966 32.112 16.6598 32.0073 16.4948C31.8929 16.3116 30.3968 15.9449 29.4345 15.8533C28.2052 15.7434 26.2995 15.8717 25.0035 16.1465C23.5265 16.458 23.2598 16.458 22.7641 16.1739C22.3925 15.9724 21.9447 15.5051 21.6778 15.0468C21.6207 14.9552 21.4396 14.9552 20.7058 15.0743C19.4957 15.2668 16.8941 15.3491 15.6648 15.23C15.1215 15.1749 14.6547 15.1475 14.6261 15.1659C14.5309 15.2668 14.8454 16.8793 15.1027 17.6397C15.7792 19.5822 17.1513 21.1124 19.0476 22.0195C19.6956 22.3311 20.7152 22.67 20.782 22.5968C20.8581 22.5236 20.3245 21.2133 20.0482 20.8101C19.8956 20.5811 19.4096 20.0771 18.9809 19.6924C17.9137 18.7578 17.6467 18.373 17.6373 17.7774C17.6279 17.3926 17.6755 17.2733 17.8852 17.0627C18.0948 16.8612 18.2282 16.8154 18.619 16.8154H19.0859L19.9435 17.6948C20.8487 18.6204 21.1347 18.8126 21.9445 18.9777C22.6307 19.1151 23.4786 18.9593 24.6699 18.4737C26.852 17.5758 28.4528 17.3833 29.2152 17.9148C29.9775 18.4553 30.1013 18.5104 30.6064 18.5104C31.083 18.5104 31.1018 18.5195 31.1018 18.7671C31.1018 19.2985 30.8828 20.1322 30.5967 20.7095C30.2345 21.4425 28.9482 22.707 28.081 23.1834C27.5759 23.4582 27.4806 23.5591 27.3948 23.8706C27.0613 25.0251 26.8994 27.05 27.0993 27.6364C27.3471 28.3878 27.8902 28.7177 28.8622 28.7177C29.8627 28.7086 32.9788 27.884 35.342 26.9859C37.7625 26.0697 40.4876 24.4753 41.9647 23.1011L42.8699 22.2581L41.2215 22.2948C39.8779 22.3222 39.5444 22.3039 39.4301 22.2032C39.1252 21.91 39.249 21.7543 40.2686 21.1312C44.4805 18.5932 48.1396 14.5065 50.8363 9.32074C51.6844 7.69892 52.8278 5.02349 52.8278 4.66615C52.8286 4.62012 52.5619 4.73915 52.2473 4.92235Z" fill="#5B2293"/>
<path d="M14.4073 28.956C14.0451 28.7451 13.7402 28.727 13.3116 28.9102C12.4348 29.2766 12.4348 30.4769 13.3116 30.9077C14.6073 31.5489 15.6557 29.689 14.4073 28.956Z" fill="#5B2293"/>
<path d="M38.3539 41.1057C38.373 41.0966 38.5826 40.9773 38.8208 40.8492C39.3926 40.5286 39.8118 40.0888 40.0785 39.5389C40.3834 38.8791 40.3834 37.633 40.0691 36.946C39.7545 36.2681 39.0686 35.6999 38.268 35.4526C37.6962 35.2694 37.3531 35.251 35.0375 35.2052L32.4362 35.1685V39.7589V44.3493H33.4843H34.5325V42.8832V41.4081L35.3615 41.4356L36.1809 41.463L37.1911 42.9016L38.2013 44.3402L39.3735 44.3493C40.012 44.3493 40.536 44.3219 40.536 44.2944C40.536 44.267 40.0406 43.543 39.4305 42.691C38.8208 41.8294 38.3442 41.1238 38.3539 41.1057ZM38.2204 38.4577C38.1157 39.4013 37.5915 39.667 35.7999 39.6763H34.5327V38.3386V37.0009L35.8954 37.0376C37.0485 37.056 37.2963 37.0925 37.5821 37.2483C38.0299 37.5047 38.268 37.9627 38.2204 38.4577Z" fill="#5B2293"/>
<path d="M64.4922 44.23C64.4349 44.1294 63.5585 42.883 61.8621 40.4826L61.2903 39.6854L62.8529 37.5047C63.7105 36.3137 64.4252 35.2965 64.4347 35.2598C64.4538 35.2231 63.9487 35.1866 63.3198 35.1866H62.1667L61.9095 35.5439C61.7569 35.7455 61.3091 36.4053 60.8993 37.01C60.4991 37.624 60.1275 38.1187 60.0893 38.1094C60.0511 38.1094 59.5939 37.4589 59.0697 36.6708L58.1072 35.2321H55.9727H53.8285L52.9518 36.515C51.9513 37.9901 51.7893 38.201 51.7226 38.0726C51.7035 38.0178 51.2557 37.3487 50.7315 36.5792L49.7786 35.1863H48.0443H46.3006L45.1572 37.0188C44.5283 38.0266 43.9947 38.8512 43.9662 38.8512C43.9376 38.8422 43.4231 38.0357 42.8131 37.0372L41.7173 35.2321L40.5072 35.2047C39.8401 35.1956 39.2971 35.2047 39.2971 35.2231C39.2971 35.2505 40.1165 36.5059 41.1075 38.0085L42.918 40.7481V42.544V44.349H43.9662H45.0143V42.5166V40.6749L46.5105 38.43C47.7015 36.6433 48.0257 36.2125 48.121 36.3041C48.1783 36.3683 48.7595 37.1562 49.3978 38.0543L50.5603 39.6852L50.3889 39.9325C50.3031 40.0699 49.598 41.0687 48.8263 42.15C48.0639 43.2313 47.3968 44.1749 47.3589 44.2298C47.3016 44.3214 47.5494 44.3488 48.4358 44.3488H49.5889L50.6752 42.7728L51.771 41.2061L52.8382 42.7728L53.9054 44.3488H55.897H57.8792L58.937 42.8095C59.5182 41.9665 60.0139 41.2609 60.0328 41.2428C60.0516 41.2247 60.5473 41.9117 61.1285 42.7821L62.2054 44.3488H63.3776C64.3017 44.349 64.5493 44.3216 64.4922 44.23ZM57.4406 41.7103C56.6591 42.8191 55.992 43.7444 55.9635 43.7627C55.935 43.7811 55.2585 42.8649 54.4579 41.7378L53.0094 39.6761L54.4579 37.6511C55.6395 35.9928 55.9253 35.6536 56.0206 35.7545C56.0873 35.8187 56.7544 36.7349 57.4976 37.7885L58.8507 39.6945L57.4406 41.7103Z" fill="#5B2293"/>
<path d="M0.79969 39.8595V44.4409H1.84782H2.89596V42.7V40.9592H5.13537H7.37478V39.9972V39.0352H5.13537H2.89596V38.0731V37.1111H5.3641H7.83224L7.87987 39.3286C7.9275 41.7199 7.99423 42.1414 8.48965 42.9479C9.38546 44.423 11.7963 45.0096 13.8926 44.2582C14.55 44.0199 15.3123 43.3603 15.6269 42.7831C16.0652 41.931 16.1414 41.4453 16.1414 39.2463V37.2029H17.5232H18.905V40.8223V44.4416H19.9531H21.0013V40.8223V37.2029H22.3258H23.6503L23.6979 39.3744C23.7455 41.7108 23.8123 42.1414 24.3077 42.9476C25.2035 44.4228 27.6143 45.0093 29.7106 44.2579C30.368 44.0196 31.1303 43.3601 31.4449 42.7828C31.9215 41.8757 31.9594 41.5183 31.9594 38.284V35.2787H30.9113H29.8632V38.2015C29.8632 40.5928 29.8346 41.1884 29.7203 41.5183C29.4248 42.3062 28.7959 42.7003 27.8336 42.7003C26.9475 42.7003 26.4709 42.4346 26.0993 41.7383L25.8135 41.1977L25.785 38.2382L25.7564 35.2787H19.8961H14.0451V38.2015C14.0451 40.5928 14.0166 41.1884 13.9022 41.5183C13.6068 42.3062 12.9779 42.7003 12.0156 42.7003C11.1295 42.7003 10.6529 42.4346 10.2813 41.7383L9.99549 41.1977L9.96696 38.2382L9.93818 35.2782H5.3641H0.79969V39.8595Z" fill="#5B2293"/>
<path d="M17.7725 48.6423H20.1293V48.9762H18.1694V50.1212H19.9209V50.4504H18.1694V51.6526H20.1938V51.9818H17.7725V48.6423ZM19.3156 47.6929L19.7075 47.8551L19.0923 48.3322L18.7549 48.2892L19.3156 47.6929Z" fill="#5B2293"/>
<path d="M23.7016 48.6184C23.9521 48.6184 24.1878 48.6613 24.4086 48.7472C24.6294 48.8331 24.8204 48.9547 24.9866 49.1098C25.1528 49.2648 25.2818 49.4461 25.3761 49.6489C25.4704 49.8516 25.5175 50.0711 25.5175 50.3072C25.5175 50.5434 25.4704 50.7628 25.3761 50.9704C25.2818 51.1779 25.1528 51.3592 24.9866 51.5142C24.8204 51.6693 24.6294 51.7909 24.4086 51.8792C24.1878 51.9675 23.9521 52.0104 23.7016 52.0104C23.4461 52.0104 23.2104 51.9675 22.9896 51.8792C22.7688 51.7909 22.5778 51.6693 22.4116 51.5142C22.2454 51.3592 22.1164 51.1779 22.0221 50.9704C21.9278 50.7628 21.8807 50.5434 21.8807 50.3072C21.8807 50.0711 21.9278 49.8516 22.0221 49.6465C22.1164 49.4413 22.2454 49.2624 22.4116 49.1074C22.5778 48.9523 22.7688 48.8331 22.9896 48.7472C23.2104 48.6613 23.4461 48.6184 23.7016 48.6184ZM23.7016 48.9428C23.5056 48.9428 23.3245 48.9786 23.1533 49.0478C22.9822 49.1169 22.8333 49.2147 22.7018 49.3412C22.5703 49.4676 22.4686 49.6131 22.3942 49.7777C22.3198 49.9423 22.2826 50.1188 22.2826 50.3072C22.2826 50.4981 22.3198 50.677 22.3942 50.8416C22.4686 51.0062 22.5728 51.154 22.7043 51.2805C22.8358 51.4069 22.9871 51.5071 23.1583 51.5763C23.3295 51.6454 23.5106 51.6812 23.7016 51.6812C23.8976 51.6812 24.0787 51.6454 24.2498 51.5763C24.421 51.5071 24.5699 51.4069 24.6989 51.2805C24.8279 51.154 24.9296 51.0062 25.0015 50.8416C25.0735 50.677 25.1107 50.4981 25.1107 50.3072C25.1107 50.1188 25.0735 49.9423 25.0015 49.7777C24.9296 49.6131 24.8279 49.4676 24.6989 49.3412C24.5699 49.2147 24.421 49.1169 24.2498 49.0478C24.0787 48.9762 23.8976 48.9428 23.7016 48.9428Z" fill="#5B2293"/>
<path d="M27.4377 48.6423H29.9334V49.2481H28.2216V50.0926H29.7895V50.6985H28.2216V51.9818H27.4377V48.6423Z" fill="#5B2293"/>
<path d="M31.1142 50.6078C31.1142 50.8535 31.1861 51.0467 31.3276 51.1875C31.469 51.3282 31.6575 51.3997 31.8882 51.3997C32.114 51.3997 32.2951 51.3282 32.4315 51.1875C32.5679 51.0467 32.6374 50.8535 32.6374 50.6078V48.6423H33.4213V50.6078C33.4213 50.8964 33.3593 51.1493 33.2353 51.364C33.1112 51.5787 32.9351 51.7432 32.7044 51.8601C32.4737 51.977 32.2008 52.0343 31.8833 52.0343C31.5657 52.0343 31.2903 51.977 31.0571 51.8601C30.824 51.7432 30.6453 51.5787 30.5188 51.364C30.3923 51.1493 30.3303 50.8964 30.3303 50.6078V48.6423H31.1142V50.6078Z" fill="#5B2293"/>
<path d="M33.7835 48.6423H36.686V49.2625H35.6243V51.9818H34.8403V49.2625H33.7835V48.6423Z" fill="#5B2293"/>
<path d="M37.7428 50.6078C37.7428 50.8535 37.8148 51.0467 37.9562 51.1875C38.0976 51.3282 38.2861 51.3997 38.5168 51.3997C38.7426 51.3997 38.9237 51.3282 39.0601 51.1875C39.1966 51.0467 39.266 50.8535 39.266 50.6078V48.6423H40.05V50.6078C40.05 50.8964 39.988 51.1493 39.8639 51.364C39.7399 51.5787 39.5637 51.7432 39.333 51.8601C39.1023 51.977 38.8294 52.0343 38.5119 52.0343C38.1943 52.0343 37.919 51.977 37.6858 51.8601C37.4526 51.7432 37.274 51.5787 37.1475 51.364C37.0209 51.1493 36.9589 50.8964 36.9589 50.6078V48.6423H37.7428V50.6078Z" fill="#5B2293"/>
<path d="M42.2629 48.6423C42.7168 48.6423 43.0666 48.7424 43.3172 48.9452C43.5678 49.148 43.6918 49.4318 43.6918 49.7968C43.6918 50.1808 43.5678 50.4814 43.3172 50.6961C43.0666 50.9107 42.7168 51.0181 42.2629 51.0181H41.5385V51.9818H40.7545V48.6423H42.2629ZM42.2629 50.4074C42.4787 50.4074 42.6449 50.3597 42.7665 50.2619C42.888 50.1641 42.9476 50.0186 42.9476 49.8206C42.9476 49.6298 42.888 49.4867 42.7665 49.3913C42.6449 49.2958 42.4787 49.2481 42.2629 49.2481H41.5385V50.4074H42.2629ZM42.1686 50.7366H42.9327L43.7761 51.9818H42.888L42.1686 50.7366Z" fill="#5B2293"/>
<path d="M45.9642 48.5946C46.2296 48.5946 46.4752 48.6375 46.701 48.7234C46.9267 48.8092 47.1252 48.9309 47.2939 49.0859C47.4626 49.241 47.5941 49.4223 47.6883 49.6298C47.7826 49.8373 47.8297 50.0616 47.8297 50.3073C47.8297 50.5482 47.7826 50.7748 47.6883 50.9847C47.5941 51.1946 47.4626 51.3783 47.2939 51.5357C47.1252 51.6932 46.9267 51.8148 46.701 51.9031C46.4752 51.9913 46.2296 52.0343 45.9642 52.0343C45.6987 52.0343 45.4531 51.9913 45.2274 51.9031C45.0016 51.8148 44.8032 51.6932 44.6345 51.5357C44.4658 51.3783 44.3343 51.1946 44.24 50.9847C44.1458 50.7748 44.0986 50.5482 44.0986 50.3073C44.0986 50.0616 44.1458 49.8349 44.24 49.6274C44.3343 49.4199 44.4658 49.2386 44.6345 49.0836C44.8032 48.9285 45.0016 48.8092 45.2274 48.7234C45.4531 48.6375 45.6987 48.5946 45.9642 48.5946ZM45.9741 49.2291C45.8277 49.2291 45.6913 49.2553 45.5598 49.3102C45.4283 49.365 45.3142 49.4414 45.2175 49.5392C45.1207 49.637 45.0438 49.7515 44.9867 49.8827C44.9297 50.0139 44.9024 50.1546 44.9024 50.3073C44.9024 50.4599 44.9297 50.603 44.9867 50.7342C45.0438 50.8654 45.1207 50.9823 45.2199 51.0825C45.3192 51.1827 45.4333 51.2614 45.5623 51.3163C45.6913 51.3711 45.8277 51.3998 45.9741 51.3998C46.1205 51.3998 46.2569 51.3711 46.3834 51.3163C46.5099 51.2614 46.6216 51.1827 46.7183 51.0825C46.8151 50.9823 46.8895 50.8654 46.9441 50.7342C46.9987 50.603 47.026 50.4599 47.026 50.3073C47.026 50.1546 46.9987 50.0139 46.9441 49.8827C46.8895 49.7515 46.8151 49.637 46.7183 49.5392C46.6216 49.4414 46.5099 49.365 46.3834 49.3102C46.2544 49.2553 46.118 49.2291 45.9741 49.2291Z" fill="#5B2293"/>
</svg>
