<svg width="40" height="41" viewBox="0 0 40 41" fill="none" xmlns="http://www.w3.org/2000/svg">
<path d="M8.96295 26.7907C6.56729 27.7254 4.0642 28.357 1.51187 28.671C2.97786 31.9864 5.30375 34.8495 8.24852 36.9636L18.0971 34.6669C44.6229 27.8031 51.193 11.2354 8.96295 26.7907Z" fill="#EDEDEE"/>
<path d="M14.0782 21.2944C21.5512 19.3177 32.4473 15.5352 39.4996 14.8558C38.3422 10.8691 35.9893 7.33355 32.7585 4.72672C2.04691 11.6518 -4.28212 25.1251 14.0782 21.2944Z" fill="#EDEDEE"/>
<path d="M34.2179 31.7522C28.051 34.7677 20.8366 37.2836 13.0305 39.5101C17.6406 41.2145 22.713 41.1856 27.3033 39.4286C31.8936 37.6717 35.689 34.3065 37.9829 29.9596C36.7587 30.6198 35.5021 31.2181 34.2179 31.7522Z" fill="#EDEDEE"/>
<path d="M8.45025 10.0521C13.9334 7.22503 20.9461 4.6829 29.0503 2.34238C26.4198 1.04327 23.5386 0.330631 20.6058 0.253666C17.673 0.176704 14.7584 0.737261 12.0634 1.89661C9.36839 3.05597 6.95713 4.7865 4.99617 6.96868C3.03521 9.15086 1.57129 11.7327 0.705505 14.5359C3.09137 12.7262 5.69288 11.22 8.45025 10.0521Z" fill="#EDEDEE"/>
</svg>
